<svg xmlns="http://www.w3.org/2000/svg" viewBox="0 0 160 160"><defs><style>.cls-1{fill:#e5e5e0;}.cls-2{fill:#293133;}.cls-3{fill:#9b111e;}</style></defs><g id="Livello_2" data-name="Livello 2"><rect class="cls-1" width="160" height="160"/></g><g id="Livello_1" data-name="Livello 1"><path class="cls-2" d="M121.74,114.61a26.92,26.92,0,0,1-12.8,12.78v0A26.68,26.68,0,0,1,97.43,130h-50V30H62.82v84.61Z"/><path class="cls-2" d="M124.33,99.23H78.19V30H97.4a24.42,24.42,0,0,1,3.86.32,23.08,23.08,0,0,1,0,45.51c-.54.1-1.1.17-1.65.22l.3,0c.53.05,1.06.12,1.59.19l1.22.21a21.81,21.81,0,0,1,3.51.92,9,9,0,0,1,1.13.41,24,24,0,0,1,3.25,1.5c.67.37,1.32.77,2,1.18s1.33.92,2,1.45c.3.24.6.49.9.77s.64.55.94.85l.63.62a27,27,0,0,1,6,9.67,9.09,9.09,0,0,1,.35,1,19.44,19.44,0,0,1,.75,3,.41.41,0,0,1,0,.16c0,.17.07.34.1.51s.07.41.1.62Z"/><polygon class="cls-3" points="124.33 99.23 108.95 114.61 62.82 114.61 62.82 45.38 78.19 30 78.19 99.24 124.33 99.23"/></g></svg>